<svg xmlns="http://www.w3.org/2000/svg" width="127" height="32" viewBox="0 0 127 32" fill="none"><g clip-path="url(#clip0_132_1314)"><path d="M126.976 21.3712L109.445 11.6357L109.408 0L126.939 9.73545L126.976 21.3712Z" fill="#00C5F6"></path><path d="M127 21.3713L109.507 31.2178L109.47 19.5821L126.963 9.7356L127 21.3713Z" fill="#12D4FF"></path><path d="M0 9.84652L17.4932 0L17.5302 11.6357L0.0370235 21.4822L0 9.84652Z" fill="#005ADF"></path><path d="M0.0239258 9.84644L17.555 19.5819L17.592 31.2176L0.0609493 21.4821L0.0239258 9.84644Z" fill="#007FFF"></path><path d="M42.3384 14.3235C40.8617 14.3235 39.6357 13.8405 38.6507 12.865C37.657 11.8894 37.1646 10.6823 37.1646 9.23322C37.1646 7.78414 37.657 6.58561 38.6507 5.61095C39.6357 4.64489 40.8617 4.16187 42.3384 4.16187C43.815 4.16187 45.0411 4.64489 46.0261 5.61095C47.0016 6.58647 47.4932 7.79361 47.4932 9.23322C47.4932 10.6728 47.0007 11.8894 46.0261 12.865C45.0411 13.8405 43.815 14.3235 42.3384 14.3235ZM44.8181 11.7413C45.4776 11.0818 45.8022 10.2458 45.8022 9.24269C45.8022 8.23961 45.4768 7.40357 44.8181 6.73457C44.1585 6.07503 43.332 5.74096 42.3384 5.74096C41.3448 5.74096 40.5087 6.07503 39.8492 6.73457C39.1896 7.40357 38.8556 8.23961 38.8556 9.24269C38.8556 10.2458 39.1896 11.0818 39.8492 11.7413C40.5087 12.4104 41.3353 12.7444 42.3384 12.7444C43.3414 12.7444 44.1585 12.4104 44.8181 11.7413Z" fill="white"></path><path d="M51.2751 6.14064C52.0276 4.86807 53.0866 4.23608 54.4513 4.23608V5.92625C53.4577 5.92625 52.6863 6.2233 52.1197 6.81826C51.5532 7.42183 51.2742 8.22084 51.2742 9.22392V14.0912H49.6392V4.39451H51.2742V6.14064H51.2751Z" fill="white"></path><path d="M64.3716 5.23025C65.0965 5.94575 65.4582 6.90234 65.4582 8.1V14.0909H63.8231V8.61058C63.8231 7.74699 63.5631 7.05904 63.0525 6.52952C62.5419 6 61.854 5.73997 60.9904 5.73997C60.1268 5.73997 59.3932 6.00947 58.8447 6.53899C58.2963 7.06851 58.0276 7.77454 58.0276 8.64761V14.0909H56.3926V4.39421H58.0276V5.94575C58.7982 4.7567 59.9597 4.1626 61.5199 4.1626C62.6995 4.1626 63.6466 4.51561 64.3716 5.23111V5.23025Z" fill="white"></path><path d="M75.3142 12.605H76.5867V14.0911H73.847V12.8375C73.2434 13.7571 72.1009 14.3236 70.7913 14.3236C69.7882 14.3236 68.9522 14.0171 68.2926 13.3946C67.6236 12.7815 67.2896 12.0109 67.2896 11.0819C67.2896 10.1529 67.6236 9.40981 68.2926 8.78729C68.9522 8.17425 69.7882 7.86773 70.7913 7.86773H73.68V5.97265H67.9301V4.39355H75.3142V12.605ZM72.9369 12.2985C73.4294 11.9455 73.68 11.4814 73.68 10.9149V9.3547H70.9953C70.4099 9.3547 69.9363 9.52174 69.5557 9.8472C69.1752 10.1813 68.9797 10.5903 68.9797 11.0828C68.9797 11.5752 69.1752 12.0118 69.5557 12.3364C69.9363 12.6705 70.4099 12.8384 70.9953 12.8384C71.7944 12.8384 72.4444 12.6618 72.9369 12.2994V12.2985Z" fill="white"></path><path d="M86.2485 0.390625H87.8836V14.091H86.2485V12.2424C85.4314 13.534 84.0753 14.3235 82.4773 14.3235C81.0936 14.3235 79.9416 13.8405 79.022 12.865C78.093 11.8894 77.6289 10.6823 77.6289 9.23321C77.6289 7.78413 78.093 6.5856 79.022 5.61093C79.9416 4.64488 81.0936 4.16185 82.4773 4.16185C84.0753 4.16185 85.4314 4.94193 86.2485 6.23345V0.390625ZM85.2635 11.7413C85.923 11.0818 86.2476 10.2458 86.2476 9.24268C86.2476 8.2396 85.9222 7.40356 85.2635 6.73455C84.604 6.07502 83.7774 5.74095 82.7838 5.74095C81.7902 5.74095 80.9541 6.07502 80.2946 6.73455C79.6351 7.40356 79.301 8.2396 79.301 9.24268C79.301 10.2458 79.6351 11.0818 80.2946 11.7413C80.9541 12.4103 81.7807 12.7444 82.7838 12.7444C83.7869 12.7444 84.604 12.4103 85.2635 11.7413Z" fill="white"></path><path d="M97.9807 12.605H99.2533V14.0911H96.5135V12.8375C95.9099 13.7571 94.7674 14.3236 93.4578 14.3236C92.4547 14.3236 91.6187 14.0171 90.9591 13.3946C90.2901 12.7815 89.9561 12.0109 89.9561 11.0819C89.9561 10.1529 90.2901 9.40981 90.9591 8.78729C91.6187 8.17425 92.4547 7.86773 93.4578 7.86773H96.3465V5.97265H90.5966V4.39355H97.9807V12.605ZM95.6026 12.2985C96.0951 11.9455 96.3456 11.4814 96.3456 10.9149V9.3547H93.661C93.0755 9.3547 92.6019 9.52174 92.2214 9.8472C91.8408 10.1813 91.6454 10.5903 91.6454 11.0828C91.6454 11.5752 91.8408 12.0118 92.2214 12.3364C92.6019 12.6705 93.0755 12.8384 93.661 12.8384C94.46 12.8384 95.1101 12.6618 95.6026 12.2994V12.2985Z" fill="white"></path><path d="M30.1552 17.1768H31.7903V30.8772H30.1552V29.0286C29.3381 30.3201 27.982 31.1096 26.384 31.1096C25.0004 31.1096 23.8483 30.6266 22.9288 29.6511C21.9997 28.6756 21.5356 27.4684 21.5356 26.0193C21.5356 24.5703 21.9997 23.3717 22.9288 22.3971C23.8483 21.431 25.0004 20.948 26.384 20.948C27.982 20.948 29.3381 21.7281 30.1552 23.0196V17.1776V17.1768ZM29.1711 28.5275C29.8306 27.8679 30.1561 27.0319 30.1561 26.0288C30.1561 25.0257 29.8306 24.1897 29.1711 23.5207C28.5116 22.8612 27.685 22.5271 26.6914 22.5271C25.6978 22.5271 24.8617 22.8612 24.2022 23.5207C23.5427 24.1897 23.2086 25.0257 23.2086 26.0288C23.2086 27.0319 23.5427 27.8679 24.2022 28.5275C24.8617 29.1965 25.6883 29.5305 26.6914 29.5305C27.6945 29.5305 28.5116 29.1965 29.1711 28.5275Z" fill="white"></path><path d="M44.2092 26.7064H35.6827C35.8221 27.57 36.2122 28.2666 36.8433 28.7961C37.4658 29.3351 38.2183 29.6046 39.0914 29.6046C39.8155 29.6046 40.457 29.4376 41.0235 29.094C41.5901 28.76 41.999 28.3234 42.2496 27.775H44.0517C43.6987 28.778 43.0762 29.5865 42.1936 30.1901C41.3016 30.8031 40.271 31.1097 39.0914 31.1097C37.6148 31.1097 36.3887 30.6266 35.4132 29.6511C34.4282 28.6756 33.9365 27.4684 33.9365 26.0194C33.9365 24.5703 34.429 23.3717 35.4132 22.3971C36.3887 21.431 37.6148 20.948 39.0914 20.948C40.568 20.948 41.7855 21.431 42.7696 22.4065C43.7546 23.3821 44.2463 24.5892 44.2463 26.0288C44.2463 26.2329 44.2368 26.4559 44.2092 26.7073V26.7064ZM39.0914 22.4522C38.2278 22.4522 37.4934 22.7122 36.8803 23.2228C36.2578 23.7334 35.8678 24.4118 35.7007 25.2479H42.5001C42.3426 24.4213 41.9517 23.7523 41.33 23.2323C40.698 22.7122 39.955 22.4522 39.0914 22.4522Z" fill="white"></path><path d="M56.2396 17.7529C58.1442 17.7529 59.7233 18.3754 60.995 19.6196C62.2581 20.8732 62.8901 22.4342 62.8901 24.3104C62.8901 26.1865 62.2581 27.7562 60.995 29.0012C59.7224 30.2548 58.1433 30.8773 56.2396 30.8773H51.1777V17.7529H56.2396ZM56.2207 29.2423C57.6138 29.2423 58.7753 28.7687 59.7129 27.8302C60.642 26.8917 61.1061 25.7216 61.1061 24.3095C61.1061 22.8975 60.642 21.7274 59.7129 20.7889C58.7744 19.8504 57.6138 19.3863 56.2207 19.3863H52.923V29.2414H56.2207V29.2423Z" fill="white"></path><path d="M72.4397 29.3911H73.7122V30.8773H70.9725V29.6236C70.3689 30.5432 69.2264 31.1097 67.9168 31.1097C66.9137 31.1097 66.0777 30.8032 65.4181 30.1807C64.7491 29.5677 64.415 28.7971 64.415 27.868C64.415 26.939 64.7491 26.1959 65.4181 25.5734C66.0777 24.9604 66.9137 24.6539 67.9168 24.6539H70.8055V22.7588H65.0556V21.1797H72.4397V29.3911ZM70.0624 29.0846C70.5549 28.7316 70.8055 28.2675 70.8055 27.701V26.1408H68.1208C67.5353 26.1408 67.0618 26.3079 66.6812 26.6333C66.3007 26.9674 66.1052 27.3764 66.1052 27.8689C66.1052 28.3614 66.3007 28.7979 66.6812 29.1225C67.0618 29.4566 67.5353 29.6245 68.1208 29.6245C68.9198 29.6245 69.5699 29.448 70.0624 29.0855V29.0846Z" fill="white"></path><path d="M83.3735 17.1768H85.0085V30.8772H83.3735V29.0286C82.5564 30.3201 81.2003 31.1096 79.6023 31.1096C78.2186 31.1096 77.0666 30.6266 76.147 29.6511C75.218 28.6756 74.7539 27.4684 74.7539 26.0193C74.7539 24.5703 75.218 23.3717 76.147 22.3971C77.0666 21.431 78.2186 20.948 79.6023 20.948C81.2003 20.948 82.5564 21.7281 83.3735 23.0196V17.1776V17.1768ZM82.3885 28.5275C83.048 27.8679 83.3726 27.0319 83.3726 26.0288C83.3726 25.0257 83.0472 24.1897 82.3885 23.5207C81.729 22.8612 80.9024 22.5271 79.9088 22.5271C78.9152 22.5271 78.0791 22.8612 77.4196 23.5207C76.7601 24.1897 76.426 25.0257 76.426 26.0288C76.426 27.0319 76.7601 27.8679 77.4196 28.5275C78.0791 29.1965 78.9057 29.5305 79.9088 29.5305C80.9119 29.5305 81.729 29.1965 82.3885 28.5275Z" fill="white"></path><path d="M92.3281 31.1097C90.8515 31.1097 89.6254 30.6266 88.6404 29.6511C87.6468 28.6756 87.1543 27.4684 87.1543 26.0194C87.1543 24.5703 87.6468 23.3717 88.6404 22.3971C89.6254 21.431 90.8515 20.948 92.3281 20.948C93.8047 20.948 95.0308 21.431 96.0158 22.3971C96.9914 23.3726 97.483 24.5797 97.483 26.0194C97.483 27.459 96.9905 28.6756 96.0158 29.6511C95.0308 30.6266 93.8047 31.1097 92.3281 31.1097ZM94.8078 28.5275C95.4674 27.8679 95.792 27.0319 95.792 26.0288C95.792 25.0257 95.4665 24.1897 94.8078 23.5207C94.1483 22.8612 93.3217 22.5271 92.3281 22.5271C91.3345 22.5271 90.4985 22.8612 89.8389 23.5207C89.1794 24.1897 88.8453 25.0257 88.8453 26.0288C88.8453 27.0319 89.1794 27.8679 89.8389 28.5275C90.4985 29.1965 91.325 29.5306 92.3281 29.5306C93.3312 29.5306 94.1483 29.1965 94.8078 28.5275Z" fill="white"></path><path d="M102.258 31.1098C101.32 31.1098 100.54 30.8222 99.917 30.2367C99.2945 29.6607 98.9785 28.9547 98.9785 28.1186H100.669C100.669 28.5362 100.826 28.8987 101.133 29.1871C101.439 29.4747 101.82 29.6237 102.266 29.6237C102.712 29.6237 103.065 29.5031 103.362 29.2517C103.659 29.0003 103.808 28.6946 103.808 28.3322C103.808 27.5426 103.176 26.9941 101.903 26.6695C101.04 26.4371 100.361 26.103 99.8602 25.6475C99.3582 25.2015 99.1077 24.5704 99.1077 23.743C99.1077 22.9155 99.4142 22.2293 100.018 21.7179C100.621 21.2064 101.364 20.9473 102.247 20.9473C103.129 20.9473 103.882 21.2262 104.486 21.7833C105.089 22.3404 105.386 23.0189 105.386 23.8179H103.696C103.696 23.4373 103.557 23.1118 103.278 22.8424C102.999 22.5729 102.646 22.4334 102.229 22.4334C101.839 22.4334 101.504 22.5539 101.226 22.7959C100.938 23.0369 100.799 23.3254 100.799 23.65C100.799 24.4206 101.431 24.9596 102.703 25.2661C104.579 25.7586 105.518 26.7333 105.518 28.1737C105.518 29.0468 105.211 29.7528 104.589 30.2918C103.966 30.8403 103.196 31.1089 102.257 31.1089L102.258 31.1098Z" fill="white"></path><path d="M34.8702 0.966797H33.1327V12.457H29.9039V9.56141H28.0708V12.457V14.0912V14.092H29.9039V14.0912H34.8702V0.966797Z" fill="white"></path></g><defs><clipPath id="clip0_132_1314"><rect width="127" height="31.2177" fill="white"></rect></clipPath></defs></svg>